<mxfile host="app.diagrams.net" modified="2022-11-08T18:05:46.622Z" agent="5.0 (Windows NT 10.0; Win64; x64) AppleWebKit/537.36 (KHTML, like Gecko) Chrome/107.0.0.0 Safari/537.36" etag="xiwiRXQ4hZhmDxD-Lg1o" version="20.5.3" type="github">
  <diagram id="0p5sOn9IM3p2lrbPk7xw" name="Sayfa -1">
    <mxGraphModel dx="2370" dy="2479" grid="1" gridSize="10" guides="1" tooltips="1" connect="1" arrows="1" fold="1" page="1" pageScale="1" pageWidth="827" pageHeight="1169" math="0" shadow="0">
      <root>
        <mxCell id="0" />
        <mxCell id="1" parent="0" />
        <mxCell id="mbP8TRgjL7w7NpLtnhRK-1" value="trainers" style="rounded=0;whiteSpace=wrap;html=1;" parent="1" vertex="1">
          <mxGeometry x="305" y="-940" width="120" height="60" as="geometry" />
        </mxCell>
        <mxCell id="mbP8TRgjL7w7NpLtnhRK-4" value="&lt;u&gt;trainerID&lt;/u&gt;" style="ellipse;whiteSpace=wrap;html=1;" parent="1" vertex="1">
          <mxGeometry x="260" y="-990" width="60" height="40" as="geometry" />
        </mxCell>
        <mxCell id="mbP8TRgjL7w7NpLtnhRK-5" value="" style="endArrow=none;html=1;rounded=0;exitX=1;exitY=1;exitDx=0;exitDy=0;entryX=0.25;entryY=0;entryDx=0;entryDy=0;" parent="1" source="mbP8TRgjL7w7NpLtnhRK-4" target="mbP8TRgjL7w7NpLtnhRK-1" edge="1">
          <mxGeometry width="50" height="50" relative="1" as="geometry">
            <mxPoint x="615" y="-800" as="sourcePoint" />
            <mxPoint x="665" y="-850" as="targetPoint" />
          </mxGeometry>
        </mxCell>
        <mxCell id="_CFFiFyCOQSLz_YWFSRL-1" value="name" style="ellipse;whiteSpace=wrap;html=1;" parent="1" vertex="1">
          <mxGeometry x="330" y="-1000" width="50" height="40" as="geometry" />
        </mxCell>
        <mxCell id="_CFFiFyCOQSLz_YWFSRL-8" value="joinDate" style="ellipse;whiteSpace=wrap;html=1;" parent="1" vertex="1">
          <mxGeometry x="395" y="-990" width="60" height="40" as="geometry" />
        </mxCell>
        <mxCell id="_CFFiFyCOQSLz_YWFSRL-9" value="" style="endArrow=none;html=1;rounded=0;exitX=0.75;exitY=0;exitDx=0;exitDy=0;entryX=0;entryY=1;entryDx=0;entryDy=0;" parent="1" source="mbP8TRgjL7w7NpLtnhRK-1" target="_CFFiFyCOQSLz_YWFSRL-8" edge="1">
          <mxGeometry width="50" height="50" relative="1" as="geometry">
            <mxPoint x="405" y="-750" as="sourcePoint" />
            <mxPoint x="455" y="-800" as="targetPoint" />
          </mxGeometry>
        </mxCell>
        <mxCell id="_CFFiFyCOQSLz_YWFSRL-10" value="pokemons" style="rounded=0;whiteSpace=wrap;html=1;" parent="1" vertex="1">
          <mxGeometry x="330" y="-580" width="120" height="60" as="geometry" />
        </mxCell>
        <mxCell id="_CFFiFyCOQSLz_YWFSRL-11" value="&lt;u&gt;pokemonID&lt;/u&gt;" style="ellipse;whiteSpace=wrap;html=1;" parent="1" vertex="1">
          <mxGeometry x="275" y="-490" width="80" height="40" as="geometry" />
        </mxCell>
        <mxCell id="_CFFiFyCOQSLz_YWFSRL-12" value="" style="endArrow=none;html=1;rounded=0;exitX=1;exitY=0;exitDx=0;exitDy=0;entryX=0.25;entryY=1;entryDx=0;entryDy=0;" parent="1" source="_CFFiFyCOQSLz_YWFSRL-11" target="_CFFiFyCOQSLz_YWFSRL-10" edge="1">
          <mxGeometry width="50" height="50" relative="1" as="geometry">
            <mxPoint x="660" y="-450" as="sourcePoint" />
            <mxPoint x="710" y="-500" as="targetPoint" />
          </mxGeometry>
        </mxCell>
        <mxCell id="_CFFiFyCOQSLz_YWFSRL-14" value="name" style="ellipse;whiteSpace=wrap;html=1;" parent="1" vertex="1">
          <mxGeometry x="390" y="-490" width="50" height="40" as="geometry" />
        </mxCell>
        <mxCell id="_CFFiFyCOQSLz_YWFSRL-15" value="spawnRate" style="ellipse;whiteSpace=wrap;html=1;" parent="1" vertex="1">
          <mxGeometry x="450" y="-490" width="85" height="40" as="geometry" />
        </mxCell>
        <mxCell id="_CFFiFyCOQSLz_YWFSRL-16" value="" style="endArrow=none;html=1;rounded=0;entryX=0;entryY=0;entryDx=0;entryDy=0;exitX=1;exitY=1;exitDx=0;exitDy=0;" parent="1" source="_CFFiFyCOQSLz_YWFSRL-10" target="_CFFiFyCOQSLz_YWFSRL-15" edge="1">
          <mxGeometry width="50" height="50" relative="1" as="geometry">
            <mxPoint x="450" y="-530" as="sourcePoint" />
            <mxPoint x="500" y="-450" as="targetPoint" />
          </mxGeometry>
        </mxCell>
        <mxCell id="_CFFiFyCOQSLz_YWFSRL-17" value="leagues" style="rounded=0;whiteSpace=wrap;html=1;" parent="1" vertex="1">
          <mxGeometry x="584" y="-1050" width="120" height="60" as="geometry" />
        </mxCell>
        <mxCell id="_CFFiFyCOQSLz_YWFSRL-18" value="&lt;u&gt;leagueID&lt;/u&gt;" style="ellipse;whiteSpace=wrap;html=1;" parent="1" vertex="1">
          <mxGeometry x="534" y="-1100" width="80" height="40" as="geometry" />
        </mxCell>
        <mxCell id="_CFFiFyCOQSLz_YWFSRL-19" value="" style="endArrow=none;html=1;rounded=0;exitX=1;exitY=1;exitDx=0;exitDy=0;entryX=0.25;entryY=0;entryDx=0;entryDy=0;" parent="1" source="_CFFiFyCOQSLz_YWFSRL-18" target="_CFFiFyCOQSLz_YWFSRL-17" edge="1">
          <mxGeometry width="50" height="50" relative="1" as="geometry">
            <mxPoint x="914" y="-930" as="sourcePoint" />
            <mxPoint x="964" y="-980" as="targetPoint" />
          </mxGeometry>
        </mxCell>
        <mxCell id="_CFFiFyCOQSLz_YWFSRL-20" style="edgeStyle=orthogonalEdgeStyle;rounded=0;orthogonalLoop=1;jettySize=auto;html=1;exitX=0.5;exitY=1;exitDx=0;exitDy=0;entryX=0.5;entryY=0;entryDx=0;entryDy=0;endArrow=none;endFill=0;" parent="1" source="_CFFiFyCOQSLz_YWFSRL-21" target="_CFFiFyCOQSLz_YWFSRL-17" edge="1">
          <mxGeometry relative="1" as="geometry" />
        </mxCell>
        <mxCell id="_CFFiFyCOQSLz_YWFSRL-21" value="name" style="ellipse;whiteSpace=wrap;html=1;" parent="1" vertex="1">
          <mxGeometry x="619" y="-1120" width="50" height="40" as="geometry" />
        </mxCell>
        <mxCell id="_CFFiFyCOQSLz_YWFSRL-22" value="order" style="ellipse;whiteSpace=wrap;html=1;" parent="1" vertex="1">
          <mxGeometry x="674" y="-1100" width="80" height="40" as="geometry" />
        </mxCell>
        <mxCell id="_CFFiFyCOQSLz_YWFSRL-23" value="" style="endArrow=none;html=1;rounded=0;exitX=0.75;exitY=0;exitDx=0;exitDy=0;entryX=0;entryY=1;entryDx=0;entryDy=0;" parent="1" source="_CFFiFyCOQSLz_YWFSRL-17" target="_CFFiFyCOQSLz_YWFSRL-22" edge="1">
          <mxGeometry width="50" height="50" relative="1" as="geometry">
            <mxPoint x="704" y="-880" as="sourcePoint" />
            <mxPoint x="754" y="-930" as="targetPoint" />
          </mxGeometry>
        </mxCell>
        <mxCell id="_CFFiFyCOQSLz_YWFSRL-39" style="edgeStyle=orthogonalEdgeStyle;rounded=0;orthogonalLoop=1;jettySize=auto;html=1;exitX=0;exitY=0.5;exitDx=0;exitDy=0;entryX=1;entryY=0.5;entryDx=0;entryDy=0;endArrow=none;endFill=0;strokeWidth=1;" parent="1" source="_CFFiFyCOQSLz_YWFSRL-26" target="_CFFiFyCOQSLz_YWFSRL-37" edge="1">
          <mxGeometry relative="1" as="geometry" />
        </mxCell>
        <mxCell id="_CFFiFyCOQSLz_YWFSRL-26" value="types" style="rounded=0;whiteSpace=wrap;html=1;strokeWidth=1;" parent="1" vertex="1">
          <mxGeometry x="634" y="-580" width="120" height="60" as="geometry" />
        </mxCell>
        <mxCell id="_CFFiFyCOQSLz_YWFSRL-27" value="&lt;u&gt;typeID&lt;/u&gt;" style="ellipse;whiteSpace=wrap;html=1;" parent="1" vertex="1">
          <mxGeometry x="590" y="-630" width="80" height="40" as="geometry" />
        </mxCell>
        <mxCell id="_CFFiFyCOQSLz_YWFSRL-28" value="" style="endArrow=none;html=1;rounded=0;exitX=1;exitY=1;exitDx=0;exitDy=0;entryX=0.25;entryY=0;entryDx=0;entryDy=0;" parent="1" source="_CFFiFyCOQSLz_YWFSRL-27" target="_CFFiFyCOQSLz_YWFSRL-26" edge="1">
          <mxGeometry width="50" height="50" relative="1" as="geometry">
            <mxPoint x="964" y="-460" as="sourcePoint" />
            <mxPoint x="1014" y="-510" as="targetPoint" />
          </mxGeometry>
        </mxCell>
        <mxCell id="_CFFiFyCOQSLz_YWFSRL-29" style="edgeStyle=orthogonalEdgeStyle;rounded=0;orthogonalLoop=1;jettySize=auto;html=1;exitX=0.5;exitY=1;exitDx=0;exitDy=0;entryX=0.5;entryY=0;entryDx=0;entryDy=0;endArrow=none;endFill=0;" parent="1" source="_CFFiFyCOQSLz_YWFSRL-30" target="_CFFiFyCOQSLz_YWFSRL-26" edge="1">
          <mxGeometry relative="1" as="geometry" />
        </mxCell>
        <mxCell id="_CFFiFyCOQSLz_YWFSRL-30" value="name" style="ellipse;whiteSpace=wrap;html=1;" parent="1" vertex="1">
          <mxGeometry x="670" y="-650" width="50" height="40" as="geometry" />
        </mxCell>
        <mxCell id="_CFFiFyCOQSLz_YWFSRL-32" value="description" style="ellipse;whiteSpace=wrap;html=1;" parent="1" vertex="1">
          <mxGeometry x="730" y="-630" width="80" height="40" as="geometry" />
        </mxCell>
        <mxCell id="_CFFiFyCOQSLz_YWFSRL-33" value="" style="endArrow=none;html=1;rounded=0;exitX=0.75;exitY=0;exitDx=0;exitDy=0;entryX=0;entryY=1;entryDx=0;entryDy=0;" parent="1" target="_CFFiFyCOQSLz_YWFSRL-32" edge="1">
          <mxGeometry width="50" height="50" relative="1" as="geometry">
            <mxPoint x="714.72" y="-580" as="sourcePoint" />
            <mxPoint x="794.72" y="-460" as="targetPoint" />
          </mxGeometry>
        </mxCell>
        <mxCell id="_CFFiFyCOQSLz_YWFSRL-41" style="edgeStyle=orthogonalEdgeStyle;rounded=0;orthogonalLoop=1;jettySize=auto;html=1;exitX=0;exitY=0.5;exitDx=0;exitDy=0;entryX=1;entryY=0.5;entryDx=0;entryDy=0;endArrow=none;endFill=0;startArrow=none;startFill=0;strokeWidth=3;" parent="1" source="_CFFiFyCOQSLz_YWFSRL-37" target="_CFFiFyCOQSLz_YWFSRL-10" edge="1">
          <mxGeometry relative="1" as="geometry" />
        </mxCell>
        <mxCell id="_CFFiFyCOQSLz_YWFSRL-37" value="hasType" style="rhombus;whiteSpace=wrap;html=1;strokeWidth=1;" parent="1" vertex="1">
          <mxGeometry x="510" y="-590" width="80" height="80" as="geometry" />
        </mxCell>
        <mxCell id="sR-MP5B-pgGaU7aGURbe-1" value="moves" style="rounded=0;whiteSpace=wrap;html=1;" parent="1" vertex="1">
          <mxGeometry x="584" y="-355" width="120" height="60" as="geometry" />
        </mxCell>
        <mxCell id="sR-MP5B-pgGaU7aGURbe-2" value="&lt;u&gt;moveID&lt;/u&gt;" style="ellipse;whiteSpace=wrap;html=1;" parent="1" vertex="1">
          <mxGeometry x="489" y="-285" width="80" height="40" as="geometry" />
        </mxCell>
        <mxCell id="sR-MP5B-pgGaU7aGURbe-5" value="name" style="ellipse;whiteSpace=wrap;html=1;" parent="1" vertex="1">
          <mxGeometry x="553" y="-255" width="50" height="40" as="geometry" />
        </mxCell>
        <mxCell id="sR-MP5B-pgGaU7aGURbe-6" value="accuracy" style="ellipse;whiteSpace=wrap;html=1;" parent="1" vertex="1">
          <mxGeometry x="603" y="-245" width="84" height="40" as="geometry" />
        </mxCell>
        <mxCell id="sR-MP5B-pgGaU7aGURbe-8" value="power" style="ellipse;whiteSpace=wrap;html=1;" parent="1" vertex="1">
          <mxGeometry x="689" y="-255" width="80" height="40" as="geometry" />
        </mxCell>
        <mxCell id="sR-MP5B-pgGaU7aGURbe-9" value="points" style="ellipse;whiteSpace=wrap;html=1;" parent="1" vertex="1">
          <mxGeometry x="720" y="-295" width="80" height="40" as="geometry" />
        </mxCell>
        <mxCell id="sR-MP5B-pgGaU7aGURbe-21" value="hasMove" style="rhombus;whiteSpace=wrap;html=1;" parent="1" vertex="1">
          <mxGeometry x="650" y="-472.5" width="80" height="80" as="geometry" />
        </mxCell>
        <mxCell id="sR-MP5B-pgGaU7aGURbe-37" style="edgeStyle=orthogonalEdgeStyle;rounded=0;orthogonalLoop=1;jettySize=auto;html=1;exitX=1;exitY=0.5;exitDx=0;exitDy=0;startArrow=classic;startFill=1;endArrow=none;endFill=0;strokeWidth=3;" parent="1" source="sR-MP5B-pgGaU7aGURbe-24" target="_CFFiFyCOQSLz_YWFSRL-10" edge="1">
          <mxGeometry relative="1" as="geometry" />
        </mxCell>
        <mxCell id="sR-MP5B-pgGaU7aGURbe-38" style="edgeStyle=orthogonalEdgeStyle;rounded=0;orthogonalLoop=1;jettySize=auto;html=1;exitX=0;exitY=0.5;exitDx=0;exitDy=0;entryX=1;entryY=0.5;entryDx=0;entryDy=0;strokeWidth=1;startArrow=none;startFill=0;endArrow=none;endFill=0;" parent="1" source="sR-MP5B-pgGaU7aGURbe-24" target="sR-MP5B-pgGaU7aGURbe-30" edge="1">
          <mxGeometry relative="1" as="geometry" />
        </mxCell>
        <mxCell id="sR-MP5B-pgGaU7aGURbe-24" value="spawnsFrom" style="rhombus;whiteSpace=wrap;html=1;" parent="1" vertex="1">
          <mxGeometry x="190" y="-590" width="90" height="80" as="geometry" />
        </mxCell>
        <mxCell id="sR-MP5B-pgGaU7aGURbe-30" value="locations" style="rounded=0;whiteSpace=wrap;html=1;" parent="1" vertex="1">
          <mxGeometry x="40" y="-584" width="120" height="60" as="geometry" />
        </mxCell>
        <mxCell id="sR-MP5B-pgGaU7aGURbe-33" value="name" style="ellipse;whiteSpace=wrap;html=1;" parent="1" vertex="1">
          <mxGeometry x="119" y="-644" width="50" height="40" as="geometry" />
        </mxCell>
        <mxCell id="sR-MP5B-pgGaU7aGURbe-34" value="&lt;u&gt;locationID&lt;/u&gt;" style="ellipse;whiteSpace=wrap;html=1;" parent="1" vertex="1">
          <mxGeometry x="20" y="-644" width="80" height="40" as="geometry" />
        </mxCell>
        <mxCell id="sR-MP5B-pgGaU7aGURbe-41" value="" style="endArrow=none;html=1;rounded=0;strokeWidth=1;exitX=0.75;exitY=0;exitDx=0;exitDy=0;" parent="1" source="sR-MP5B-pgGaU7aGURbe-30" edge="1">
          <mxGeometry width="50" height="50" relative="1" as="geometry">
            <mxPoint x="290" y="-204" as="sourcePoint" />
            <mxPoint x="140" y="-604" as="targetPoint" />
          </mxGeometry>
        </mxCell>
        <mxCell id="sR-MP5B-pgGaU7aGURbe-42" value="" style="endArrow=none;html=1;rounded=0;strokeWidth=1;entryX=0;entryY=1;entryDx=0;entryDy=0;exitX=1;exitY=0;exitDx=0;exitDy=0;" parent="1" source="sR-MP5B-pgGaU7aGURbe-2" target="sR-MP5B-pgGaU7aGURbe-1" edge="1">
          <mxGeometry width="50" height="50" relative="1" as="geometry">
            <mxPoint x="509" y="-300" as="sourcePoint" />
            <mxPoint x="499" y="-360" as="targetPoint" />
          </mxGeometry>
        </mxCell>
        <mxCell id="sR-MP5B-pgGaU7aGURbe-43" value="" style="endArrow=none;html=1;rounded=0;strokeWidth=1;entryX=1;entryY=1;entryDx=0;entryDy=0;exitX=0;exitY=0;exitDx=0;exitDy=0;" parent="1" source="sR-MP5B-pgGaU7aGURbe-9" target="sR-MP5B-pgGaU7aGURbe-1" edge="1">
          <mxGeometry width="50" height="50" relative="1" as="geometry">
            <mxPoint x="520.6000000000001" y="-291.8399999999999" as="sourcePoint" />
            <mxPoint x="538.9999999999998" y="-310" as="targetPoint" />
          </mxGeometry>
        </mxCell>
        <mxCell id="sR-MP5B-pgGaU7aGURbe-44" value="" style="endArrow=none;html=1;rounded=0;strokeWidth=1;entryX=0.75;entryY=1;entryDx=0;entryDy=0;exitX=0.273;exitY=0.043;exitDx=0;exitDy=0;exitPerimeter=0;" parent="1" source="sR-MP5B-pgGaU7aGURbe-8" target="sR-MP5B-pgGaU7aGURbe-1" edge="1">
          <mxGeometry width="50" height="50" relative="1" as="geometry">
            <mxPoint x="530.6000000000001" y="-281.8399999999999" as="sourcePoint" />
            <mxPoint x="548.9999999999998" y="-300" as="targetPoint" />
          </mxGeometry>
        </mxCell>
        <mxCell id="sR-MP5B-pgGaU7aGURbe-45" value="" style="endArrow=none;html=1;rounded=0;strokeWidth=1;entryX=0.5;entryY=1;entryDx=0;entryDy=0;exitX=0.5;exitY=0;exitDx=0;exitDy=0;" parent="1" source="sR-MP5B-pgGaU7aGURbe-6" target="sR-MP5B-pgGaU7aGURbe-1" edge="1">
          <mxGeometry width="50" height="50" relative="1" as="geometry">
            <mxPoint x="540.6000000000001" y="-271.8399999999999" as="sourcePoint" />
            <mxPoint x="558.9999999999998" y="-290" as="targetPoint" />
          </mxGeometry>
        </mxCell>
        <mxCell id="sR-MP5B-pgGaU7aGURbe-46" value="" style="endArrow=none;html=1;rounded=0;strokeWidth=1;entryX=0.25;entryY=1;entryDx=0;entryDy=0;" parent="1" source="sR-MP5B-pgGaU7aGURbe-5" target="sR-MP5B-pgGaU7aGURbe-1" edge="1">
          <mxGeometry width="50" height="50" relative="1" as="geometry">
            <mxPoint x="550.6000000000001" y="-261.8399999999999" as="sourcePoint" />
            <mxPoint x="568.9999999999998" y="-280" as="targetPoint" />
          </mxGeometry>
        </mxCell>
        <mxCell id="sR-MP5B-pgGaU7aGURbe-51" value="" style="endArrow=none;html=1;rounded=0;strokeWidth=1;exitX=1;exitY=0.5;exitDx=0;exitDy=0;entryX=0.5;entryY=1;entryDx=0;entryDy=0;" parent="1" source="sR-MP5B-pgGaU7aGURbe-53" target="_CFFiFyCOQSLz_YWFSRL-10" edge="1">
          <mxGeometry width="50" height="50" relative="1" as="geometry">
            <mxPoint x="390.0000000000002" y="-460" as="sourcePoint" />
            <mxPoint x="480" y="-530" as="targetPoint" />
          </mxGeometry>
        </mxCell>
        <mxCell id="sR-MP5B-pgGaU7aGURbe-53" value="ISA" style="triangle;whiteSpace=wrap;html=1;rotation=-90;" parent="1" vertex="1">
          <mxGeometry x="263" y="-355" width="62.5" height="80" as="geometry" />
        </mxCell>
        <mxCell id="sR-MP5B-pgGaU7aGURbe-63" value="normal" style="rounded=0;whiteSpace=wrap;html=1;" parent="1" vertex="1">
          <mxGeometry x="54" y="-200" width="90" height="40" as="geometry" />
        </mxCell>
        <mxCell id="sR-MP5B-pgGaU7aGURbe-65" value="egg" style="rounded=0;whiteSpace=wrap;html=1;" parent="1" vertex="1">
          <mxGeometry x="174" y="-200" width="90" height="40" as="geometry" />
        </mxCell>
        <mxCell id="sR-MP5B-pgGaU7aGURbe-66" value="legendary" style="rounded=0;whiteSpace=wrap;html=1;" parent="1" vertex="1">
          <mxGeometry x="279" y="-200" width="90" height="40" as="geometry" />
        </mxCell>
        <mxCell id="sR-MP5B-pgGaU7aGURbe-67" value="mytical" style="rounded=0;whiteSpace=wrap;html=1;" parent="1" vertex="1">
          <mxGeometry x="389" y="-200" width="90" height="40" as="geometry" />
        </mxCell>
        <mxCell id="sR-MP5B-pgGaU7aGURbe-69" value="" style="endArrow=none;html=1;rounded=0;strokeWidth=1;exitX=1;exitY=0;exitDx=0;exitDy=0;" parent="1" source="sR-MP5B-pgGaU7aGURbe-63" edge="1">
          <mxGeometry width="50" height="50" relative="1" as="geometry">
            <mxPoint x="164" y="-145" as="sourcePoint" />
            <mxPoint x="254" y="-285" as="targetPoint" />
          </mxGeometry>
        </mxCell>
        <mxCell id="sR-MP5B-pgGaU7aGURbe-70" value="" style="endArrow=none;html=1;rounded=0;strokeWidth=1;exitX=0.619;exitY=0.007;exitDx=0;exitDy=0;exitPerimeter=0;entryX=0;entryY=0.25;entryDx=0;entryDy=0;" parent="1" source="sR-MP5B-pgGaU7aGURbe-65" target="sR-MP5B-pgGaU7aGURbe-53" edge="1">
          <mxGeometry width="50" height="50" relative="1" as="geometry">
            <mxPoint x="214" y="-205" as="sourcePoint" />
            <mxPoint x="264" y="-275" as="targetPoint" />
          </mxGeometry>
        </mxCell>
        <mxCell id="sR-MP5B-pgGaU7aGURbe-71" value="" style="endArrow=none;html=1;rounded=0;strokeWidth=1;entryX=0;entryY=0.5;entryDx=0;entryDy=0;" parent="1" target="sR-MP5B-pgGaU7aGURbe-53" edge="1">
          <mxGeometry width="50" height="50" relative="1" as="geometry">
            <mxPoint x="304" y="-205" as="sourcePoint" />
            <mxPoint x="284.25" y="-273.75" as="targetPoint" />
          </mxGeometry>
        </mxCell>
        <mxCell id="sR-MP5B-pgGaU7aGURbe-72" value="" style="endArrow=none;html=1;rounded=0;strokeWidth=1;exitX=0;exitY=0;exitDx=0;exitDy=0;entryX=0;entryY=0.75;entryDx=0;entryDy=0;" parent="1" source="sR-MP5B-pgGaU7aGURbe-67" target="sR-MP5B-pgGaU7aGURbe-53" edge="1">
          <mxGeometry width="50" height="50" relative="1" as="geometry">
            <mxPoint x="249.71000000000004" y="-179.72000000000003" as="sourcePoint" />
            <mxPoint x="294.25" y="-263.75" as="targetPoint" />
          </mxGeometry>
        </mxCell>
        <mxCell id="sR-MP5B-pgGaU7aGURbe-73" value="minutesToHatch" style="ellipse;whiteSpace=wrap;html=1;" parent="1" vertex="1">
          <mxGeometry x="166.5" y="-140" width="105" height="40" as="geometry" />
        </mxCell>
        <mxCell id="sR-MP5B-pgGaU7aGURbe-74" value="powerMultiplier" style="ellipse;whiteSpace=wrap;html=1;" parent="1" vertex="1">
          <mxGeometry x="271.5" y="-150" width="105" height="40" as="geometry" />
        </mxCell>
        <mxCell id="sR-MP5B-pgGaU7aGURbe-75" value="accuracyMultiplier" style="ellipse;whiteSpace=wrap;html=1;" parent="1" vertex="1">
          <mxGeometry x="365" y="-95" width="95" height="35" as="geometry" />
        </mxCell>
        <mxCell id="sR-MP5B-pgGaU7aGURbe-76" value="pointsMultiplier" style="ellipse;whiteSpace=wrap;html=1;" parent="1" vertex="1">
          <mxGeometry x="425" y="-140" width="85" height="40" as="geometry" />
        </mxCell>
        <mxCell id="sR-MP5B-pgGaU7aGURbe-83" value="" style="endArrow=none;html=1;rounded=0;strokeWidth=1;entryX=0.5;entryY=0;entryDx=0;entryDy=0;exitX=0.25;exitY=1;exitDx=0;exitDy=0;" parent="1" source="sR-MP5B-pgGaU7aGURbe-67" target="sR-MP5B-pgGaU7aGURbe-75" edge="1">
          <mxGeometry width="50" height="50" relative="1" as="geometry">
            <mxPoint x="424" y="-135" as="sourcePoint" />
            <mxPoint x="504" y="-225" as="targetPoint" />
          </mxGeometry>
        </mxCell>
        <mxCell id="sR-MP5B-pgGaU7aGURbe-84" value="" style="endArrow=none;html=1;rounded=0;strokeWidth=1;entryX=0.75;entryY=1;entryDx=0;entryDy=0;exitX=0.373;exitY=0.008;exitDx=0;exitDy=0;exitPerimeter=0;" parent="1" source="sR-MP5B-pgGaU7aGURbe-76" target="sR-MP5B-pgGaU7aGURbe-67" edge="1">
          <mxGeometry width="50" height="50" relative="1" as="geometry">
            <mxPoint x="454" y="-175" as="sourcePoint" />
            <mxPoint x="504" y="-225" as="targetPoint" />
          </mxGeometry>
        </mxCell>
        <mxCell id="sR-MP5B-pgGaU7aGURbe-85" value="" style="endArrow=none;html=1;rounded=0;strokeWidth=3;entryX=0.5;entryY=1;entryDx=0;entryDy=0;exitX=0.5;exitY=0;exitDx=0;exitDy=0;startArrow=none;startFill=0;" parent="1" source="sR-MP5B-pgGaU7aGURbe-21" target="_CFFiFyCOQSLz_YWFSRL-26" edge="1">
          <mxGeometry width="50" height="50" relative="1" as="geometry">
            <mxPoint x="520" y="-290" as="sourcePoint" />
            <mxPoint x="570" y="-340" as="targetPoint" />
          </mxGeometry>
        </mxCell>
        <mxCell id="sR-MP5B-pgGaU7aGURbe-87" value="" style="endArrow=none;html=1;rounded=0;strokeWidth=1;entryX=0.5;entryY=1;entryDx=0;entryDy=0;exitX=0.5;exitY=0;exitDx=0;exitDy=0;" parent="1" source="sR-MP5B-pgGaU7aGURbe-1" target="sR-MP5B-pgGaU7aGURbe-21" edge="1">
          <mxGeometry width="50" height="50" relative="1" as="geometry">
            <mxPoint x="396" y="-310" as="sourcePoint" />
            <mxPoint x="682" y="-392.5" as="targetPoint" />
          </mxGeometry>
        </mxCell>
        <mxCell id="sR-MP5B-pgGaU7aGURbe-88" value="" style="endArrow=none;html=1;rounded=0;strokeWidth=1;entryX=0.5;entryY=1;entryDx=0;entryDy=0;exitX=0.5;exitY=0;exitDx=0;exitDy=0;" parent="1" source="sR-MP5B-pgGaU7aGURbe-74" target="sR-MP5B-pgGaU7aGURbe-66" edge="1">
          <mxGeometry width="50" height="50" relative="1" as="geometry">
            <mxPoint x="464" y="-165" as="sourcePoint" />
            <mxPoint x="514" y="-215" as="targetPoint" />
          </mxGeometry>
        </mxCell>
        <mxCell id="sR-MP5B-pgGaU7aGURbe-89" value="" style="endArrow=none;html=1;rounded=0;strokeWidth=1;entryX=0.5;entryY=1;entryDx=0;entryDy=0;exitX=0.5;exitY=0;exitDx=0;exitDy=0;" parent="1" source="sR-MP5B-pgGaU7aGURbe-73" target="sR-MP5B-pgGaU7aGURbe-65" edge="1">
          <mxGeometry width="50" height="50" relative="1" as="geometry">
            <mxPoint x="474" y="-155" as="sourcePoint" />
            <mxPoint x="524" y="-205" as="targetPoint" />
          </mxGeometry>
        </mxCell>
        <mxCell id="GqBREQ20nbdP9Gs7GXl7-5" value="hasPokemons" style="rhombus;whiteSpace=wrap;html=1;fillStyle=auto;strokeWidth=1;fillColor=none;gradientColor=none;" parent="1" vertex="1">
          <mxGeometry x="260" y="-770" width="110" height="70" as="geometry" />
        </mxCell>
        <mxCell id="GqBREQ20nbdP9Gs7GXl7-6" value="" style="endArrow=classic;html=1;rounded=0;strokeWidth=1;entryX=0.5;entryY=1;entryDx=0;entryDy=0;exitX=0.25;exitY=0;exitDx=0;exitDy=0;endFill=1;" parent="1" source="_CFFiFyCOQSLz_YWFSRL-10" target="GqBREQ20nbdP9Gs7GXl7-5" edge="1">
          <mxGeometry width="50" height="50" relative="1" as="geometry">
            <mxPoint x="356.5" y="-660" as="sourcePoint" />
            <mxPoint x="260" y="-660" as="targetPoint" />
          </mxGeometry>
        </mxCell>
        <mxCell id="GqBREQ20nbdP9Gs7GXl7-7" value="" style="endArrow=none;html=1;rounded=0;strokeWidth=1;entryX=0.5;entryY=0;entryDx=0;entryDy=0;exitX=0.25;exitY=1;exitDx=0;exitDy=0;" parent="1" source="mbP8TRgjL7w7NpLtnhRK-1" target="GqBREQ20nbdP9Gs7GXl7-5" edge="1">
          <mxGeometry width="50" height="50" relative="1" as="geometry">
            <mxPoint x="210" y="-610" as="sourcePoint" />
            <mxPoint x="260" y="-660" as="targetPoint" />
          </mxGeometry>
        </mxCell>
        <mxCell id="GqBREQ20nbdP9Gs7GXl7-9" value="nickname" style="ellipse;whiteSpace=wrap;html=1;fillStyle=auto;strokeWidth=1;fillColor=none;gradientColor=none;" parent="1" vertex="1">
          <mxGeometry x="206.5" y="-800" width="68.5" height="40" as="geometry" />
        </mxCell>
        <mxCell id="GqBREQ20nbdP9Gs7GXl7-10" value="" style="endArrow=none;html=1;rounded=0;strokeWidth=1;entryX=1;entryY=1;entryDx=0;entryDy=0;exitX=0;exitY=0;exitDx=0;exitDy=0;" parent="1" source="GqBREQ20nbdP9Gs7GXl7-5" target="GqBREQ20nbdP9Gs7GXl7-9" edge="1">
          <mxGeometry width="50" height="50" relative="1" as="geometry">
            <mxPoint x="210" y="-710" as="sourcePoint" />
            <mxPoint x="260" y="-760" as="targetPoint" />
          </mxGeometry>
        </mxCell>
        <mxCell id="GqBREQ20nbdP9Gs7GXl7-11" value="hasPresets" style="rhombus;whiteSpace=wrap;html=1;fillStyle=auto;strokeWidth=1;fillColor=none;gradientColor=none;" parent="1" vertex="1">
          <mxGeometry x="395" y="-775" width="105" height="80" as="geometry" />
        </mxCell>
        <mxCell id="GqBREQ20nbdP9Gs7GXl7-12" value="" style="endArrow=none;html=1;rounded=0;strokeWidth=1;entryX=0.75;entryY=1;entryDx=0;entryDy=0;exitX=0.5;exitY=0;exitDx=0;exitDy=0;" parent="1" source="GqBREQ20nbdP9Gs7GXl7-11" target="mbP8TRgjL7w7NpLtnhRK-1" edge="1">
          <mxGeometry width="50" height="50" relative="1" as="geometry">
            <mxPoint x="210" y="-630" as="sourcePoint" />
            <mxPoint x="260" y="-680" as="targetPoint" />
          </mxGeometry>
        </mxCell>
        <mxCell id="GqBREQ20nbdP9Gs7GXl7-15" value="" style="endArrow=none;html=1;rounded=0;strokeWidth=1;entryX=0.5;entryY=1;entryDx=0;entryDy=0;exitX=0.75;exitY=0;exitDx=0;exitDy=0;" parent="1" source="_CFFiFyCOQSLz_YWFSRL-10" target="GqBREQ20nbdP9Gs7GXl7-11" edge="1">
          <mxGeometry width="50" height="50" relative="1" as="geometry">
            <mxPoint x="403.8800000000001" y="-658.8800000000001" as="sourcePoint" />
            <mxPoint x="260" y="-680" as="targetPoint" />
          </mxGeometry>
        </mxCell>
        <mxCell id="GqBREQ20nbdP9Gs7GXl7-16" value="&lt;u&gt;presetID&lt;/u&gt;" style="ellipse;whiteSpace=wrap;html=1;fillStyle=auto;strokeWidth=1;fillColor=none;gradientColor=none;" parent="1" vertex="1">
          <mxGeometry x="469" y="-810" width="80" height="50" as="geometry" />
        </mxCell>
        <mxCell id="GqBREQ20nbdP9Gs7GXl7-17" value="" style="endArrow=none;html=1;rounded=0;strokeWidth=1;entryX=0;entryY=1;entryDx=0;entryDy=0;exitX=0.695;exitY=0.2;exitDx=0;exitDy=0;exitPerimeter=0;" parent="1" source="GqBREQ20nbdP9Gs7GXl7-11" target="GqBREQ20nbdP9Gs7GXl7-16" edge="1">
          <mxGeometry width="50" height="50" relative="1" as="geometry">
            <mxPoint x="210" y="-630" as="sourcePoint" />
            <mxPoint x="260" y="-680" as="targetPoint" />
          </mxGeometry>
        </mxCell>
        <mxCell id="GqBREQ20nbdP9Gs7GXl7-18" value="battles" style="rhombus;whiteSpace=wrap;html=1;fillStyle=auto;strokeWidth=1;fillColor=none;gradientColor=none;" parent="1" vertex="1">
          <mxGeometry x="580" y="-950" width="80" height="80" as="geometry" />
        </mxCell>
        <mxCell id="GqBREQ20nbdP9Gs7GXl7-19" value="initiator trainer" style="endArrow=none;html=1;rounded=0;strokeWidth=1;entryX=1;entryY=0.75;entryDx=0;entryDy=0;exitX=0.158;exitY=0.671;exitDx=0;exitDy=0;exitPerimeter=0;" parent="1" source="GqBREQ20nbdP9Gs7GXl7-18" target="mbP8TRgjL7w7NpLtnhRK-1" edge="1">
          <mxGeometry width="50" height="50" relative="1" as="geometry">
            <mxPoint x="210" y="-630" as="sourcePoint" />
            <mxPoint x="260" y="-680" as="targetPoint" />
          </mxGeometry>
        </mxCell>
        <mxCell id="GqBREQ20nbdP9Gs7GXl7-21" value="opponent trainer" style="endArrow=none;html=1;rounded=0;strokeWidth=1;entryX=1;entryY=0.25;entryDx=0;entryDy=0;exitX=0.204;exitY=0.296;exitDx=0;exitDy=0;exitPerimeter=0;" parent="1" source="GqBREQ20nbdP9Gs7GXl7-18" target="mbP8TRgjL7w7NpLtnhRK-1" edge="1">
          <mxGeometry width="50" height="50" relative="1" as="geometry">
            <mxPoint x="590" y="-925" as="sourcePoint" />
            <mxPoint x="260" y="-680" as="targetPoint" />
          </mxGeometry>
        </mxCell>
        <mxCell id="GqBREQ20nbdP9Gs7GXl7-22" value="&lt;u&gt;date&lt;/u&gt;" style="ellipse;whiteSpace=wrap;html=1;fillStyle=auto;strokeWidth=1;fillColor=none;gradientColor=none;" parent="1" vertex="1">
          <mxGeometry x="717" y="-930" width="52" height="40" as="geometry" />
        </mxCell>
        <mxCell id="GqBREQ20nbdP9Gs7GXl7-23" value="&lt;u&gt;winnerID&lt;/u&gt;" style="ellipse;whiteSpace=wrap;html=1;fillStyle=auto;strokeWidth=1;fillColor=none;gradientColor=none;" parent="1" vertex="1">
          <mxGeometry x="680" y="-870" width="60" height="40" as="geometry" />
        </mxCell>
        <mxCell id="GqBREQ20nbdP9Gs7GXl7-25" value="" style="endArrow=none;html=1;rounded=0;strokeWidth=1;entryX=1;entryY=0.5;entryDx=0;entryDy=0;exitX=0;exitY=0.5;exitDx=0;exitDy=0;" parent="1" source="GqBREQ20nbdP9Gs7GXl7-22" target="GqBREQ20nbdP9Gs7GXl7-18" edge="1">
          <mxGeometry width="50" height="50" relative="1" as="geometry">
            <mxPoint x="780" y="-930" as="sourcePoint" />
            <mxPoint x="830" y="-980" as="targetPoint" />
          </mxGeometry>
        </mxCell>
        <mxCell id="GqBREQ20nbdP9Gs7GXl7-26" value="" style="endArrow=none;html=1;rounded=0;strokeWidth=1;exitX=0.816;exitY=0.7;exitDx=0;exitDy=0;exitPerimeter=0;entryX=0;entryY=0;entryDx=0;entryDy=0;" parent="1" source="GqBREQ20nbdP9Gs7GXl7-18" target="GqBREQ20nbdP9Gs7GXl7-23" edge="1">
          <mxGeometry width="50" height="50" relative="1" as="geometry">
            <mxPoint x="780" y="-930" as="sourcePoint" />
            <mxPoint x="830" y="-980" as="targetPoint" />
          </mxGeometry>
        </mxCell>
        <mxCell id="ZvjeqY2r19N7WkH7S_N6-1" value="" style="endArrow=none;html=1;rounded=0;exitX=0.7;exitY=1.05;exitDx=0;exitDy=0;exitPerimeter=0;" edge="1" parent="1" source="_CFFiFyCOQSLz_YWFSRL-10" target="_CFFiFyCOQSLz_YWFSRL-14">
          <mxGeometry width="50" height="50" relative="1" as="geometry">
            <mxPoint x="460" y="-510" as="sourcePoint" />
            <mxPoint x="512.6263074867629" y="-474.22556786344603" as="targetPoint" />
          </mxGeometry>
        </mxCell>
        <mxCell id="ZvjeqY2r19N7WkH7S_N6-3" value="" style="endArrow=none;html=1;rounded=0;exitX=0.458;exitY=0;exitDx=0;exitDy=0;entryX=0.574;entryY=0.973;entryDx=0;entryDy=0;entryPerimeter=0;exitPerimeter=0;" edge="1" parent="1" source="mbP8TRgjL7w7NpLtnhRK-1" target="_CFFiFyCOQSLz_YWFSRL-1">
          <mxGeometry width="50" height="50" relative="1" as="geometry">
            <mxPoint x="306.2132034355966" y="-965.8578643762689" as="sourcePoint" />
            <mxPoint x="345" y="-930" as="targetPoint" />
          </mxGeometry>
        </mxCell>
        <mxCell id="ZvjeqY2r19N7WkH7S_N6-9" value="" style="endArrow=none;html=1;rounded=0;strokeWidth=1;entryX=0.5;entryY=1;entryDx=0;entryDy=0;exitX=0.25;exitY=0;exitDx=0;exitDy=0;" edge="1" parent="1" source="sR-MP5B-pgGaU7aGURbe-30" target="sR-MP5B-pgGaU7aGURbe-34">
          <mxGeometry width="50" height="50" relative="1" as="geometry">
            <mxPoint x="140" y="-574" as="sourcePoint" />
            <mxPoint x="170" y="-624" as="targetPoint" />
          </mxGeometry>
        </mxCell>
        <mxCell id="ZvjeqY2r19N7WkH7S_N6-10" value="" style="endArrow=none;html=1;rounded=0;strokeWidth=1;entryX=0.5;entryY=1;entryDx=0;entryDy=0;exitX=0.5;exitY=0;exitDx=0;exitDy=0;" edge="1" parent="1" source="GqBREQ20nbdP9Gs7GXl7-18" target="_CFFiFyCOQSLz_YWFSRL-17">
          <mxGeometry width="50" height="50" relative="1" as="geometry">
            <mxPoint x="530" y="-930" as="sourcePoint" />
            <mxPoint x="580" y="-980" as="targetPoint" />
          </mxGeometry>
        </mxCell>
      </root>
    </mxGraphModel>
  </diagram>
</mxfile>
